<svg width="8" height="8" viewBox="0 0 8 8" fill="none" xmlns="http://www.w3.org/2000/svg">
<g clip-path="url(#clip0_201_18887)">
<path d="M4.66758 1.51465H2.44621C2.29892 1.51465 2.15767 1.57316 2.05352 1.6773C1.94938 1.78145 1.89087 1.9227 1.89087 2.06999V6.51272C1.89087 6.66001 1.94938 6.80126 2.05352 6.90541C2.15767 7.00955 2.29892 7.06806 2.44621 7.06806H5.77826C5.92554 7.06806 6.0668 7.00955 6.17094 6.90541C6.27509 6.80126 6.3336 6.66001 6.3336 6.51272V3.18067L4.66758 1.51465ZM5.16738 6.51272H4.66758L4.11223 5.56864L3.55689 6.51272H3.05709L3.86233 5.2632L3.05709 4.01368H3.55689L4.11223 4.95776L4.66758 4.01368H5.16738L4.36214 5.2632L5.16738 6.51272ZM4.3899 3.45834V1.93115L5.91709 3.45834H4.3899Z" fill="#281890"/>
</g>
<defs>
<clipPath id="clip0_201_18887">
<rect width="6.6641" height="6.6641" fill="white" transform="translate(0.780151 0.958984)"/>
</clipPath>
</defs>
</svg>
